<?xml version="1.0" encoding="UTF-8" standalone="no"?>
<!DOCTYPE svg  PUBLIC '-//W3C//DTD SVG 1.1//EN'  'http://www.w3.org/Graphics/SVG/1.1/DTD/svg11.dtd'>
<svg version="1.1" xmlns="http://www.w3.org/2000/svg">
<defs>
<font id="CharterITC-Italic" horiz-adv-x="556">
<font-face descent="-200" panose-1="2 6 5 3 5 5 6 9 2 3" x-height="483" ascent="800" cap-height="671" underline-position="-150" unicode-range="U+0020-00FE" font-weight="400" units-per-em="1000" font-style="italic" underline-thickness="50" slope="-10.9" bbox="-155 -236 950 956" font-family="CharterITC"/>
<missing-glyph/>
<glyph unicode=" " glyph-name="space" horiz-adv-x="233"/>
<glyph unicode="!" glyph-name="exclam" horiz-adv-x="338" d="M110 171l45 382q9 74 25.5 102t51.5 28q45 0 45 -44q0 -24 -17 -86l-101 -382h-49zM118 105q23 0 40 -17t17 -40t-17 -40t-41 -17q-23 0 -39.5 17t-16.5 40q0 24 16.5 40.5t40.5 16.5z"/>
<glyph unicode='&quot;' glyph-name="quotedbl" horiz-adv-x="329" d="M93 434h-15l41 223q5 28 15 40.5t27 12.5q14 0 23 -8.5t9 -21.5q0 -16 -9 -37zM241 434h-15l41 223q5 28 15 40.5t27 12.5q14 0 23 -8.5t9 -21.5q0 -16 -9 -37z"/>
<glyph unicode="#" glyph-name="numbersign" horiz-adv-x="746" d="M371 710l47 -18l-79 -222h154l80 239l47 -17l-78 -222h139v-47h-155l-49 -146h163v-47h-179l-84 -253l-47 16l80 237h-153l-83 -253l-47 16l82 237h-144v47h159l48 146h-158v47h174zM324 423l-49 -146h149l51 146h-151z"/>
<glyph unicode="$" glyph-name="dollar" d="M338 743h41l-13 -71q67 -3 148 -30l-31 -146h-45l5 96l-12 17q-38 15 -74 18l-48 -252q86 -34 122.5 -73t36.5 -97q0 -83 -60.5 -137t-170.5 -68l-20 -102h-42l20 102q-107 6 -174 44l32 153h52l-10 -112l9 -12q55 -26 100 -27l50 260q-79 37 -112.5 75.5t-33.5 91.5 q0 78 61 134.5t155 64.5zM270 395l45 232q-59 -13 -91.5 -47t-32.5 -83q0 -36 17.5 -59t61.5 -43zM294 287l-46 -241q132 29 132 135q0 38 -19 62t-67 44z"/>
<glyph unicode="%" glyph-name="percent" horiz-adv-x="852" d="M248 683q55 0 86 -37.5t31 -104.5q0 -63 -22 -125t-58 -100q-50 -52 -118 -52q-55 0 -86 37t-31 104q0 64 22 126t57 100q51 52 119 52zM239 647q-46 0 -78 -66q-42 -87 -42 -192q0 -89 54 -89q48 0 82 70q41 84 41 188q0 89 -57 89zM673 671h61l-557 -671h-61zM685 407 q55 0 86 -37.5t31 -104.5q0 -63 -22 -125t-58 -100q-50 -52 -118 -52q-55 0 -86 37t-31 104q0 64 22 126t57 100q52 52 119 52zM676 371q-46 0 -78 -66q-42 -86 -42 -192q0 -89 54 -89q48 0 82 70q41 84 41 188q0 89 -57 89z"/>
<glyph unicode="&amp;" glyph-name="ampersand" horiz-adv-x="704" d="M665 360v-42l-71 -9q-62 -116 -126 -181q32 -48 70.5 -68.5t92.5 -18.5v-40l-71 -4q-17 -1 -22 -1q-37 0 -60 14t-67 64q-103 -85 -218 -85q-76 0 -124.5 45.5t-48.5 117.5q0 65 41 116t131 98q-55 78 -55 136q0 76 62 129t150 53q68 0 108.5 -35.5t40.5 -94.5 q0 -65 -49.5 -112.5t-154.5 -81.5l149 -198q40 37 87 130l-12 16l-49 10v42h196zM387 105l-172 230q-57 -37 -81 -72t-24 -81q0 -59 37.5 -96.5t95.5 -37.5q68 0 144 57zM271 387q145 53 145 159q0 43 -23 68t-63 25q-50 0 -84 -33t-34 -81q0 -59 59 -138z"/>
<glyph unicode="&apos;" glyph-name="quotesingle" horiz-adv-x="329" d="M168 434h-15l41 223q10 53 42 53q31 0 31 -31q0 -14 -9 -36z"/>
<glyph unicode="(" glyph-name="parenleft" horiz-adv-x="419" d="M459 718l-8 -42q-123 -20 -194 -152q-39 -73 -67.5 -194.5t-28.5 -215.5q0 -92 36.5 -147t104.5 -67l-8 -42q-98 10 -156.5 85t-58.5 191q0 76 19.5 167t50.5 162q62 142 181 213q59 35 129 42z"/>
<glyph unicode=")" glyph-name="parenright" horiz-adv-x="427" d="M-55 -142l8 42q122 19 194 152q39 73 67.5 194.5t28.5 215.5q0 92 -36.5 147t-104.5 67l8 42q98 -10 156.5 -85t58.5 -191q0 -76 -19.5 -166.5t-50.5 -163.5q-61 -139 -181 -212q-59 -35 -129 -42z"/>
<glyph unicode="*" glyph-name="asterisk" horiz-adv-x="500" d="M323 718l28 -61l-56 -125h-14l-9 125zM426 589l66 -18l-56 -56l-130 -8l-2 13zM295 491l84 -81l-10 -72l-62 26l-24 120zM264 491l9 -7l-70 -121l-72 -25l17 72zM172 589l95 -70l-6 -12l-128 8l-34 56z"/>
<glyph unicode="+" glyph-name="plus" horiz-adv-x="833" d="M382 269h-263v58h263v269h58v-269h264v-58h-264v-269h-58v269z"/>
<glyph unicode="," glyph-name="comma" horiz-adv-x="284" d="M-57 -169l6 33q120 22 137 143h-64q-9 14 -9 29q0 31 20 50.5t52 19.5q29 0 46 -18t17 -50q0 -76 -59 -135.5t-146 -71.5z"/>
<glyph unicode="." glyph-name="period" horiz-adv-x="278" d="M87 114q25 0 42 -17.5t17 -42.5t-17.5 -42t-42.5 -17t-42 17t-17 42q0 26 17.5 43t42.5 17z"/>
<glyph unicode="/" glyph-name="slash" horiz-adv-x="481" d="M501 671l-485 -764h-56l485 764h56z"/>
<glyph unicode="0" glyph-name="zero" d="M348 683q85 0 133.5 -61t48.5 -169q0 -99 -32 -197.5t-87 -164.5q-82 -103 -197 -103q-88 0 -136.5 60.5t-48.5 170.5q0 100 33 200.5t88 165.5q83 98 198 98zM334 636q-88 0 -149 -136q-28 -61 -46 -149t-18 -159q0 -157 101 -157q93 0 154 140q27 63 44.5 149t17.5 156 q0 156 -104 156z"/>
<glyph unicode="1" glyph-name="one" d="M379 683h25l-125 -622l10 -15l90 -5v-41h-312v43l109 5l17 18l105 519l-12 10l-151 -19v40z"/>
<glyph unicode="2" glyph-name="two" d="M92 79h301l34 85h45l-31 -164h-463l12 63q203 143 274 206q85 75 120 133.5t35 124.5q0 49 -29 77t-79 28q-41 0 -95 -24l-20 -107q-26 -15 -48 -15q-21 0 -34 11.5t-13 29.5q0 61 74.5 108.5t169.5 47.5q81 0 126.5 -39.5t45.5 -109.5q0 -62 -37.5 -123t-119.5 -132 q-60 -54 -268 -200z"/>
<glyph unicode="3" glyph-name="three" d="M208 604l-14 -96q-35 -12 -48 -12q-19 0 -31 13t-12 33q0 56 71.5 98.5t165.5 42.5q80 0 126 -36.5t46 -99.5q0 -67 -51 -117.5t-142 -72.5q74 -5 113.5 -38t39.5 -89q0 -100 -86.5 -171t-207.5 -71q-77 0 -127 31t-50 78q0 26 15 41t40 15q13 0 35 -7l15 -86 q43 -25 86 -25q78 0 131.5 51.5t53.5 127.5q0 53 -32 81.5t-91 28.5q-28 0 -59 -4l8 56q16 -1 30 -1q79 0 130.5 43.5t51.5 110.5q0 49 -30.5 78t-80.5 29q-45 0 -96 -32z"/>
<glyph unicode="4" glyph-name="four" d="M433 677h59l-80 -418h112l-13 -65h-112l-44 -231h-77l44 231h-322l12 65zM394 568l-307 -309h248z"/>
<glyph unicode="5" glyph-name="five" d="M176 671h350l-14 -76h-291l-41 -204q62 17 114 17q83 0 131.5 -42.5t48.5 -115.5q0 -109 -89.5 -185.5t-216.5 -76.5q-73 0 -115 24.5t-42 66.5q0 25 16 41.5t41 16.5q7 0 25 -3l26 -85q34 -14 71 -14q80 0 137 55.5t57 132.5q0 63 -43.5 96t-126.5 33q-22 0 -104 -6z "/>
<glyph unicode="6" glyph-name="six" d="M488 716l2 -51q-128 -13 -217 -86.5t-119 -191.5q88 63 172 63q80 0 127.5 -49.5t47.5 -133.5q0 -115 -79.5 -197t-191.5 -82q-92 0 -145 62t-53 170q0 123 60.5 236t163.5 180q93 61 232 80zM141 336q-19 -65 -19 -126q0 -85 31 -130t89 -45q72 0 120.5 61t48.5 152 q0 142 -127 142q-73 0 -143 -54z"/>
<glyph unicode="7" glyph-name="seven" d="M135 671h461l-8 -40l-456 -646l-4 -22h-83l447 632h-309l-33 -91h-47z"/>
<glyph unicode="8" glyph-name="eight" d="M359 355q74 -37 100.5 -68.5t26.5 -80.5q0 -94 -79 -157.5t-195 -63.5q-91 0 -145.5 43.5t-54.5 114.5q0 129 170 209q-45 25 -64 54t-19 73q0 88 69.5 147.5t171.5 59.5q79 0 125.5 -39t46.5 -105q0 -125 -153 -187zM319 371q113 57 113 165q0 49 -28 77.5t-77 28.5 q-61 0 -102.5 -40t-41.5 -99q0 -42 27.5 -68.5t108.5 -63.5zM216 330q-65 -38 -92.5 -76.5t-27.5 -91.5q0 -59 37.5 -94t99.5 -35q69 0 116 43t47 105q0 56 -56 89q-39 23 -124 60z"/>
<glyph unicode="9" glyph-name="nine" d="M59 -56l-18 42q130 48 217 118.5t146 175.5q-103 -55 -175 -55q-74 0 -122 50.5t-48 129.5q0 115 82 196.5t198 81.5q94 0 145 -54t51 -154q0 -207 -172 -362q-113 -103 -304 -169zM426 344q19 84 19 136q0 74 -32.5 116.5t-89.5 42.5q-70 0 -121 -63t-51 -150 q0 -67 34.5 -106t94.5 -39q72 0 146 63z"/>
<glyph unicode=":" glyph-name="colon" horiz-adv-x="278" d="M156 477q25 0 42 -17.5t17 -42.5t-17.5 -42t-42.5 -17t-42 17t-17 42t17 42.5t43 17.5zM87 114q25 0 42 -17.5t17 -42.5t-17.5 -42t-42.5 -17t-42 17t-17 42q0 26 17.5 43t42.5 17z"/>
<glyph unicode="&lt;" glyph-name="less" horiz-adv-x="833" d="M704 559v-62l-488 -199l488 -199v-62l-575 236v50z"/>
<glyph unicode="=" glyph-name="equal" horiz-adv-x="833" d="M119 420h585v-58h-585v58zM119 234h585v-58h-585v58z"/>
<glyph unicode="&gt;" glyph-name="greater" horiz-adv-x="833" d="M129 559l575 -236v-50l-575 -236v62l488 199l-488 199v62z"/>
<glyph unicode="?" glyph-name="question" horiz-adv-x="486" d="M218 288l-23 -117h-52l28 146q88 31 135 86t47 127q0 55 -28.5 80t-92.5 27l-60 -99q-11 -1 -20 -1q-49 0 -49 40q0 45 48.5 75.5t119.5 30.5q82 0 128 -38.5t46 -106.5q0 -160 -227 -250zM152 105q23 0 39.5 -17t16.5 -40t-17 -40t-40 -17t-40 17t-17 40q0 24 17 40.5 t41 16.5z"/>
<glyph unicode="@" glyph-name="at" horiz-adv-x="942" d="M645 488h54q-7 -17 -23 -86l-4 -21l-39 -172q-8 -33 -8 -55q0 -19 11 -31t29 -12q61 0 110.5 80.5t49.5 180.5q0 125 -80 201t-211 76q-166 0 -276.5 -112t-110.5 -280q0 -163 98.5 -262t260.5 -99q128 0 261 73l14 -34q-161 -88 -304 -88q-174 0 -289 113 q-112 110 -112 284q0 193 129.5 320.5t324.5 127.5q155 0 248 -87t93 -233q0 -152 -96 -246q-71 -71 -152 -71q-38 0 -55 20.5t-17 65.5q-83 -84 -147 -84q-55 0 -89.5 45t-34.5 116q0 110 74 192t174 82q44 0 99 -27zM594 394l-41 56q-12 2 -27 2q-66 0 -113.5 -66 t-47.5 -157q0 -53 21 -82t60 -29q52 0 107 66z"/>
<glyph unicode="A" glyph-name="A" horiz-adv-x="606" d="M345 677h66l108 -616l16 -18l49 -5v-38h-219v38l59 5l7 15l-31 190h-243l-107 -190l8 -15l61 -5v-38h-198v38l55 5zM345 579l-163 -288h209z"/>
<glyph unicode="B" glyph-name="B" horiz-adv-x="590" d="M86 671h257q111 0 157 -34q44 -32 44 -93q0 -91 -76 -144q-43 -31 -100 -42v-2q62 -2 102 -27q56 -36 56 -113q0 -110 -83 -165q-74 -51 -219 -51h-250v38l64 5l16 15l106 555l-10 15l-64 5v38zM250 628l-49 -259q136 -15 202 51q45 47 45 109q0 67 -51 89 q-31 13 -101 13q-22 0 -46 -3zM193 322l-53 -276q30 -2 56 -2q129 0 185 50q49 45 49 117q0 56 -35 86t-118 30q-9 0 -84 -5z"/>
<glyph unicode="C" glyph-name="C" horiz-adv-x="604" d="M622 649l-28 -154h-42v96l-8 19q-49 25 -105 25q-123 0 -208 -97q-47 -53 -71 -126.5t-24 -151.5q0 -105 51 -163q54 -61 159 -61q43 0 84 13l19 17l45 115h42l-27 -158q-100 -35 -196 -35q-129 0 -202 78q-71 76 -71 201q0 90 34.5 170.5t92.5 135.5q114 110 275 110 q88 0 180 -34z"/>
<glyph unicode="D" glyph-name="D" horiz-adv-x="664" d="M84 671h229q154 0 234 -68q77 -66 77 -189q0 -109 -53 -208.5t-144 -151.5q-95 -54 -242 -54h-211v38l64 5l16 15l106 555l-10 15l-66 5v38zM250 625l-110 -579h57q141 0 221 77q49 47 79.5 132.5t30.5 170.5q0 99 -53 149q-54 50 -170 50h-55z"/>
<glyph unicode="E" glyph-name="E" horiz-adv-x="544" d="M84 671h468l-28 -146h-48v85l-11 15h-215l-48 -254h150l18 14l21 73h44l-42 -219h-42l5 72l-12 14h-151l-53 -279h253l18 16l34 101h46l-32 -163h-485v38l64 5l16 15l106 555l-10 15l-66 5v38z"/>
<glyph unicode="F" glyph-name="F" horiz-adv-x="510" d="M86 671h454l-31 -157h-48v95l-10 16h-201l-51 -264h141l18 15l23 72h44l-43 -220h-42l3 72l-12 15h-141l-48 -257l12 -15l72 -5v-38h-252v38l64 5l16 15l106 555l-10 15l-64 5v38z"/>
<glyph unicode="G" glyph-name="G" horiz-adv-x="664" d="M639 654l-29 -159h-52l2 94l-9 21q-50 25 -100 25q-116 0 -203 -87q-52 -52 -82 -127.5t-30 -159.5q0 -89 40 -147q53 -78 159 -78q46 0 106 15l40 212l-10 15l-67 5v39h246v-39l-64 -6l-17 -14l-46 -240q-116 -35 -209 -35q-137 0 -213 92q-61 74 -61 186 q0 96 42.5 182.5t118.5 146.5q112 88 268 88q87 0 170 -29z"/>
<glyph unicode="H" glyph-name="H" horiz-adv-x="712" d="M86 671h244v-38l-66 -5l-16 -15l-46 -239h324l46 239l-10 15l-64 5v38h244v-38l-66 -5l-16 -15l-106 -555l12 -15l64 -5v-38h-244v38l64 5l16 15l51 270h-324l-51 -270l12 -15l64 -5v-38h-244v38l64 5l16 15l106 555l-10 15l-64 5v38z"/>
<glyph unicode="I" glyph-name="I" horiz-adv-x="312" d="M92 671h244v-38l-66 -5l-16 -15l-106 -555l12 -15l64 -5v-38h-244v38l64 5l16 15l106 555l-10 15l-64 5v38z"/>
<glyph unicode="J" glyph-name="J" horiz-adv-x="442" d="M228 671h244v-38l-65 -5l-16 -15l-69 -361q-30 -164 -91 -217q-52 -47 -148 -47q-72 0 -125 24l33 168h50v-126l13 -14q16 -4 33 -4q51 0 79 27q39 36 68 189l69 361l-11 15l-64 5v38z"/>
<glyph unicode="K" glyph-name="K" horiz-adv-x="630" d="M86 671h244v-38l-66 -5l-16 -15l-52 -273h27l275 271l-6 17l-70 5v38h242v-38l-83 -8l-263 -257l142 -276q16 -32 35 -43q17 -11 63 -11h20v-38q-46 -4 -79 -4q-62 0 -83 13q-19 12 -44 60l-116 229h-68l-46 -240l12 -15l64 -5v-38h-244v38l64 5l16 15l106 555l-10 15 l-64 5v38z"/>
<glyph unicode="L" glyph-name="L" horiz-adv-x="500" d="M86 671h244v-38l-66 -5l-16 -15l-108 -567h211l18 16l39 120h48l-35 -182h-447v38l64 5l16 15l106 555l-10 15l-64 5v38z"/>
<glyph unicode="M" glyph-name="M" horiz-adv-x="840" d="M86 671h203v-27l91 -509l280 505v31h210v-38l-66 -5l-16 -15l-106 -555l12 -15l64 -5v-38h-236v38l63 5l17 15l107 561l-345 -619h-44l-108 616l-102 -558l13 -15l59 -5v-38h-208v38l64 5l16 15l106 555l-10 15l-64 5v38z"/>
<glyph unicode="N" glyph-name="N" horiz-adv-x="686" d="M80 671h172v-25l239 -507l91 474l-10 15l-64 5v38h212v-38l-66 -5l-16 -15l-116 -613h-58l-265 556l-95 -498l12 -15l64 -5v-38h-212v38l64 5l16 15l106 555l-10 15l-64 5v38z"/>
<glyph unicode="O" glyph-name="O" horiz-adv-x="708" d="M407 683q99 0 168 -57q93 -78 93 -218q0 -104 -45 -200.5t-126 -155.5q-87 -64 -192 -64q-113 0 -188 73q-77 77 -77 204q0 99 42 191.5t119 153.5q92 73 206 73zM399 635q-46 0 -94.5 -26.5t-87.5 -82.5q-40 -56 -60.5 -129t-20.5 -139q0 -93 38 -151q46 -71 134 -71 q111 0 188 119q76 118 76 259q0 103 -46 162q-47 59 -127 59z"/>
<glyph unicode="P" glyph-name="P" horiz-adv-x="546" d="M86 671h213q118 0 167 -25q80 -42 80 -140q0 -108 -82 -180q-87 -74 -231 -74q-28 0 -54 2l-37 -196l12 -15l64 -5v-38h-244v38l64 5l16 15l106 555l-10 15l-64 5v38zM250 625l-62 -323q18 -2 38 -2q123 0 181 66q45 50 45 131q0 67 -43 101q-38 29 -113 29q-24 0 -46 -2 z"/>
<glyph unicode="Q" glyph-name="Q" horiz-adv-x="708" d="M700 -80v-34q-92 -46 -164 -46q-85 0 -137 77q-23 34 -40 76q-30 -5 -57 -5q-112 0 -185 73q-77 77 -77 204q0 99 42 191.5t119 153.5q92 73 206 73q99 0 168 -57q93 -78 93 -218q0 -149 -83 -266q-56 -79 -139 -121q12 -26 34 -58.5t42 -48.5q27 -20 69 -20q46 0 109 26 zM399 635q-46 0 -94.5 -26.5t-87.5 -82.5q-40 -56 -60.5 -129t-20.5 -139q0 -93 38 -151q46 -71 134 -71q111 0 188 119q76 118 76 259q0 103 -46 162q-47 59 -127 59z"/>
<glyph unicode="R" glyph-name="R" horiz-adv-x="606" d="M86 671h246q100 0 150 -29q62 -36 62 -116q0 -93 -70 -150q-49 -43 -130 -57v-2q77 -15 100 -99l18 -65q23 -80 51 -99q31 -22 81 -16v-38q-60 -5 -72 -5q-81 0 -114 45q-16 21 -31 85l-18 80q-11 47 -34 68q-28 26 -84 26h-53l-46 -241l12 -15l64 -5v-38h-244v38l64 5 l16 15l106 555l-10 15l-64 5v38zM250 624l-53 -279q20 -2 31 -2q102 0 157 40q63 46 63 127q0 55 -34 85q-42 37 -164 29z"/>
<glyph unicode="S" glyph-name="S" horiz-adv-x="538" d="M512 653l-32 -152h-44l4 99l-12 18q-36 17 -86 17q-71 0 -113 -35q-45 -38 -45 -98q0 -50 39 -82q19 -16 97 -51q75 -34 106 -66q39 -40 39 -100q0 -89 -70 -150q-75 -65 -201 -65q-99 0 -184 46l33 159h52l-10 -115l10 -13q54 -29 114 -29q79 0 126 45q42 42 42 96 q0 46 -32 75q-12 11 -89 50q-110 55 -138 99q-20 32 -20 74q0 101 88 162q66 46 174 46q68 0 152 -30z"/>
<glyph unicode="T" glyph-name="T" horiz-adv-x="564" d="M78 671h538l-30 -150h-54l4 89l-11 15h-142l-108 -567l12 -15l64 -5v-38h-244v38l64 5l16 15l108 567h-142l-17 -15l-32 -89h-54z"/>
<glyph unicode="U" glyph-name="U" horiz-adv-x="660" d="M73 671h244v-38l-66 -5l-16 -15l-71 -364q-10 -53 -10 -74q0 -53 27 -85q35 -42 115 -42q103 0 155 69q33 45 50 132l69 364l-10 15l-64 5v38h208v-38l-64 -5l-16 -15l-71 -373q-24 -129 -86 -186q-73 -66 -196 -66q-108 0 -160 46q-47 41 -47 120q0 34 12 95l71 364 l-10 15l-64 5v38z"/>
<glyph unicode="V" glyph-name="V" horiz-adv-x="590" d="M30 671h209v-38l-55 -5l-7 -15l78 -521l271 521l-8 15l-58 5v38h188v-38l-53 -6l-343 -632h-62l-97 615l-16 18l-47 5v38z"/>
<glyph unicode="W" glyph-name="W" horiz-adv-x="898" d="M50 671h214v-38l-57 -5l-8 -15l38 -471l248 529h65l56 -536l219 478l-8 15l-59 5v38h192v-38l-58 -6l-293 -627h-57l-59 549l-255 -549h-63l-50 610l-17 18l-48 5v38z"/>
<glyph unicode="X" glyph-name="X" horiz-adv-x="570" d="M53 671h243v-38l-66 -5l-15 -15l89 -207l183 207l-6 15l-57 5v38h208v-38l-70 -5l-235 -268l132 -302l14 -15l60 -5v-38h-242v38l65 5l16 15l-98 230l-206 -230l10 -15l65 -5v-38h-227v38l61 5l21 15l249 282l-120 273l-12 15l-62 5v38z"/>
<glyph unicode="Y" glyph-name="Y" horiz-adv-x="560" d="M30 671h243v-38l-65 -5l-15 -15l88 -283l209 283l-10 15l-64 5v38h224v-38l-66 -5l-16 -15l-254 -332l-42 -223l12 -15l64 -5v-38h-244v38l64 5l16 15l42 214l-111 341l-10 15l-65 5v38z"/>
<glyph unicode="Z" glyph-name="Z" d="M127 671h445l-8 -42l-473 -581h284l14 14l39 119h50l-34 -181h-470l8 42l472 581h-249l-22 -13l-34 -94h-52z"/>
<glyph unicode="[" glyph-name="bracketleft" horiz-adv-x="421" d="M210 708h237l-8 -43h-158l-145 -755h158l-8 -42h-237z"/>
<glyph unicode="\" glyph-name="backslash" horiz-adv-x="481" d="M91 671l397 -764h-56l-397 764h56z"/>
<glyph unicode="]" glyph-name="bracketright" horiz-adv-x="421" d="M196 -132h-237l8 43h158l145 755h-158l8 42h237z"/>
<glyph unicode="^" glyph-name="asciicircum" horiz-adv-x="1000" d="M456 714h87l254 -276h-45l-253 213l-254 -213h-44z"/>
<glyph unicode="_" glyph-name="underscore" horiz-adv-x="500" d="M0 -80h500v-58h-500v58z"/>
<glyph unicode="`" glyph-name="grave" horiz-adv-x="500" d="M168 736h99l60 -190h-50z"/>
<glyph unicode="a" glyph-name="a" horiz-adv-x="534" d="M414 482h52q-17 -43 -38 -143l-36 -177q-10 -53 -10 -67q0 -25 13 -38q12 -12 35 -12q22 0 62 13v-30q-40 -19 -76 -29q-29 -8 -47 -8q-38 0 -52 31q-11 25 -9 53q-26 -28 -55 -49q-47 -35 -97 -35q-72 0 -109 61q-27 44 -27 114q0 149 98 243q77 74 186 74q46 0 90 -23z M361 382l-40 60q-44 5 -85 -14t-68 -52q-29 -35 -46.5 -90.5t-17.5 -111.5q0 -53 14 -77q22 -44 72 -44q33 0 69 23q24 16 50 42z"/>
<glyph unicode="b" glyph-name="b" horiz-adv-x="506" d="M206 736h33q-14 -40 -23 -92l-43 -235q32 27 69 49q43 25 80 25q57 0 93 -47q37 -48 37 -127q0 -131 -80 -224q-81 -94 -200 -94q-80 0 -148 44l117 630l-87 15v26zM166 370l-57 -298q39 -41 87 -41q60 0 109 66q63 85 63 205q0 59 -24 90q-23 29 -58 29q-24 0 -56 -14 q-1 0 -7.5 -3.5t-21 -12t-35.5 -21.5z"/>
<glyph unicode="c" glyph-name="c" horiz-adv-x="400" d="M313 360l-58 77q-66 -5 -106 -64q-45 -67 -45 -183q0 -59 21 -96q24 -41 73 -41q46 0 91 28q31 18 67 52v-46q-32 -33 -66 -55q-65 -41 -123 -41q-71 0 -111 55q-36 50 -36 128q0 127 79 218q39 45 87.5 68t94.5 23q45 0 70 -20t25 -48q0 -24 -18.5 -39t-44.5 -16z"/>
<glyph unicode="d" glyph-name="d" horiz-adv-x="538" d="M474 736h26l-103 -575q-9 -48 -9 -65q0 -27 13 -39q14 -12 33 -12q21 0 62 13v-30q-37 -18 -78 -29q-32 -8 -49 -8q-39 0 -54 31q-13 25 -8 62q-22 -30 -53 -54q-50 -39 -103 -39q-64 0 -100 55q-31 48 -31 122q0 154 108 249q76 66 167 66q37 0 79 -14l35 201l-88 8v28z M359 384l-48 56q-40 10 -77.5 -9t-63.5 -52q-66 -80 -66 -203q0 -52 16 -81q23 -42 69 -42q33 0 72 28q24 17 54 52z"/>
<glyph unicode="e" glyph-name="e" horiz-adv-x="426" d="M368 128v-46q-91 -91 -193 -91q-45 0 -77 18t-48 47t-23 57.5t-7 57.5q0 71 31 142t92 120.5t135 49.5q46 0 74 -26.5t28 -70.5q0 -41 -23.5 -72t-64.5 -49.5t-86 -28.5t-99 -14q-3 -19 -3 -41q0 -57 24.5 -95.5t76.5 -38.5q35 0 68 14.5t49.5 27t45.5 39.5zM112 256 q75 3 135.5 38.5t60.5 90.5q0 25 -14.5 41.5t-37.5 16.5q-9 0 -19 -2t-28 -12.5t-34 -28.5t-33.5 -55.5t-29.5 -88.5z"/>
<glyph unicode="f" glyph-name="f" horiz-adv-x="292" d="M354 621l-82 67q-36 -26 -60 -102q-18 -58 -30 -132h141v-44h-149l-40 -286q-13 -93 -41 -163.5t-62.5 -107t-66.5 -54t-61 -17.5q-26 0 -40 15.5t-14 35.5q0 27 22 42l104 -27q11 13 20 29t15.5 29t13 35.5t9.5 33t8 38t6 35t5.5 38.5t5.5 35l42 289l-66 -7v33l76 31 q27 139 88.5 202t123.5 63q33 0 57 -16t24 -44q0 -40 -49 -51z"/>
<glyph unicode="g" glyph-name="g" horiz-adv-x="480" d="M335 458h143v-44h-103q13 -28 13 -65q0 -32 -11 -63t-33.5 -60t-63.5 -47t-95 -18h-12q-13 -25 -13 -52v-7l159 -72q78 -36 78 -97q0 -17 -12.5 -40.5t-38 -49.5t-76 -43.5t-115.5 -17.5q-92 0 -140.5 41.5t-48.5 91.5q0 95 134 139q-1 6 -1 17q0 51 40 97 q-20 9 -32.5 16.5t-28.5 22t-23.5 36t-7.5 49.5q0 30 11 61.5t33 61.5t61 49t89 19q52 0 94 -25zM241 445q-46 0 -80 -50t-34 -115q0 -36 15.5 -60.5t49.5 -24.5q52 0 85 52q31 47 31 107q0 53 -21 72t-46 19zM264 -25l-127 59q-40 -9 -65.5 -34t-25.5 -64q0 -52 36.5 -83 t100.5 -31t101 28.5t37 60.5q0 38 -57 64z"/>
<glyph unicode="h" glyph-name="h" horiz-adv-x="552" d="M225 736h31q-17 -64 -40 -177l-35 -173q37 31 60.5 48.5t60.5 33t72 15.5q46 0 65.5 -22.5t19.5 -64.5q0 -20 -14 -87l-34 -147q-11 -48 -11 -67q0 -21 13.5 -35.5t34.5 -14.5q22 0 62 13v-30q-76 -37 -125 -37q-71 0 -71 63q0 19 8 54l43 185q9 40 9 66t-13 44t-38 18 q-29 0 -60.5 -16t-45.5 -28t-45 -39l-64 -338h-84l138 670l-93 10v26z"/>
<glyph unicode="i" glyph-name="i" horiz-adv-x="286" d="M146 650q0 22 16 38t38 16t38 -16t16 -38t-16 -38t-38 -16t-38 16t-16 38zM180 482h26l-72 -373q-3 -15 -3 -23q0 -41 43 -41q34 0 79 13v-30q-87 -37 -138 -37q-67 0 -67 69q0 23 6 51l60 298l-82 15v26z"/>
<glyph unicode="j" glyph-name="j" horiz-adv-x="270" d="M188 482h26l-56 -356q-9 -57 -15 -85.5t-19 -65t-33 -68.5q-31 -51 -74.5 -88t-91.5 -37q-29 0 -41 16.5t-12 35.5q0 26 22 41l104 -27q25 25 47 100q18 60 34 171l45 299l-98 12v26zM142 650q0 22 16 38t38 16t38 -16t16 -38t-16 -38t-38 -16t-38 16t-16 38z"/>
<glyph unicode="k" glyph-name="k" horiz-adv-x="512" d="M226 736h26l-106 -498l184 191q52 54 89 54q23 0 39.5 -15.5t16.5 -36.5t-16.5 -38t-38.5 -24l-36 39q-37 -27 -129 -108q56 -130 91 -187q44 -68 95 -68q24 0 51 7v-30q-84 -27 -119 -27q-54 0 -92 77l-85 172l-56 -52l-32 -192h-84l135 680h-92v26z"/>
<glyph unicode="l" glyph-name="l" horiz-adv-x="282" d="M212 736h26l-113 -568q-11 -53 -11 -78q0 -49 54 -49q26 0 72 17v-30q-90 -37 -131 -37q-75 0 -75 75q0 19 16 107l98 497l-89 10v26z"/>
<glyph unicode="m" glyph-name="m" horiz-adv-x="816" d="M178 482h26l-19 -95q59 51 111.5 73.5t80.5 22.5q34 0 56 -24.5t22 -67.5q41 35 85 57.5t66.5 28.5t33.5 6q29 0 55 -20t26 -70q0 -26 -12 -80l-34 -151q-11 -48 -11 -67q0 -21 13.5 -35.5t34.5 -14.5q22 0 62 13v-30q-76 -37 -125 -37q-71 0 -71 63q0 25 8 54l42 185 q9 40 9 66q0 25 -12 43.5t-38 18.5q-65 0 -134 -81l-65 -340h-84l60 293q9 41 9 69q0 27 -15 43t-36 16q-19 0 -59 -19.5t-87 -62.5l-62 -339h-84l82 409l-82 15v26z"/>
<glyph unicode="n" glyph-name="n" d="M178 482h26l-19 -96q37 31 60.5 48.5t60.5 33t72 15.5q46 0 65.5 -22.5t19.5 -64.5q0 -20 -14 -87l-34 -147q-11 -48 -11 -67q0 -21 13.5 -35.5t34.5 -14.5q22 0 62 13v-30q-76 -37 -125 -37q-71 0 -71 63q0 19 8 54l43 185q9 40 9 66t-13 44t-38 18q-29 0 -60.5 -16 t-45.5 -28t-45 -39l-62 -338h-84l82 409l-82 15v26z"/>
<glyph unicode="o" glyph-name="o" horiz-adv-x="500" d="M275 483q76 0 121 -49q50 -54 50 -145q0 -58 -21.5 -117.5t-62.5 -102.5q-73 -78 -173 -78q-76 0 -123 52q-46 52 -46 140q0 124 76 214q74 86 179 86zM264 443q-72 0 -119 -84q-41 -72 -41 -175q0 -81 30.5 -117t66.5 -36q63 0 109 67q52 75 52 193q0 50 -9.5 83.5 t-27 47t-31 17.5t-30.5 4z"/>
<glyph unicode="p" glyph-name="p" horiz-adv-x="520" d="M174 482h26l-12 -61q33 21 47 29.5t46 20.5t58 12q64 0 95.5 -48.5t31.5 -124.5q0 -135 -85 -225q-85 -89 -189 -89q-40 0 -78 19l-33 -186l95 -17v-30h-240v30l59 12l10 11l103 574l-82 15v26zM181 377l-57 -310q45 -27 83 -27q69 0 113 60q27 36 44.5 92.5t17.5 108.5 q0 47 -21 86.5t-70 39.5q-42 0 -110 -50z"/>
<glyph unicode="q" glyph-name="q" horiz-adv-x="510" d="M410 487h48q-7 -23 -12 -54l-103 -602l96 -17v-32h-246v32l61 12l11 12l40 231q-41 -40 -73 -59t-77 -19q-61 0 -99 49q-36 46 -36 128q0 138 87 232q78 83 181 83q50 0 96 -21zM360 383l-50 59q-6 1 -16 1q-60 0 -105 -45t-65 -104t-20 -118q0 -54 22.5 -88.5 t67.5 -34.5q59 0 118 59z"/>
<glyph unicode="r" glyph-name="r" horiz-adv-x="400" d="M178 482h20l-32 -137q33 48 79 90q55 48 99 48q26 0 41 -14.5t15 -40.5q0 -30 -20 -46.5t-49 -16.5h-5l-26 54q-61 -26 -92 -59q-39 -41 -54 -125l-40 -235h-84l82 409l-82 15v26z"/>
<glyph unicode="s" glyph-name="s" horiz-adv-x="370" d="M266 369l-42 58q-16 11 -32 11q-29 0 -49 -19.5t-20 -47.5q0 -10 3.5 -20t7 -16t13.5 -15.5t14 -13.5t18.5 -15t18.5 -14q64 -51 82.5 -75.5t18.5 -54.5q0 -71 -53 -114q-51 -42 -132 -42q-61 0 -95.5 24.5t-34.5 62.5q0 25 15 39t36 14q22 0 44 -19l-18 -50 q26 -35 72 -35q35 0 62.5 22.5t27.5 60.5q0 22 -13 42t-22 27t-34 26q-57 43 -76 66t-19 58q0 19 9 43t27 50t53.5 43.5t81.5 17.5q48 0 71 -19.5t23 -43.5q0 -19 -15.5 -35t-42.5 -16z"/>
<glyph unicode="t" glyph-name="t" horiz-adv-x="334" d="M167 579h46l-21 -114h144v-44h-152l-52 -266q-6 -31 -6 -46q0 -60 61 -60q42 0 95 19v-30q-101 -47 -157 -47q-36 0 -58.5 25t-22.5 67q0 31 8 68l52 271l-60 -5v30l73 32z"/>
<glyph unicode="u" glyph-name="u" horiz-adv-x="564" d="M192 484l16 -14l-63 -292q-11 -50 -11 -73q0 -30 16.5 -43.5t39.5 -13.5q59 0 144 64l76 362h80l-67 -308q-11 -49 -11 -71q0 -21 13.5 -35.5t34.5 -14.5q22 0 62 13v-30q-76 -37 -126 -37q-67 0 -67 68q0 11 1 16q-38 -34 -87.5 -59t-94.5 -25q-42 0 -69 22t-27 72 q0 21 8 61l58 264l-84 14v26z"/>
<glyph unicode="v" glyph-name="v" horiz-adv-x="454" d="M-8 452l101 33h4q35 0 51.5 -22t22.5 -91l26 -275q108 133 153 247l-19 122q22 19 51 19q24 0 38 -14.5t14 -39.5q0 -51 -59 -148t-115 -164l-100 -119h-48q14 33 14 69q0 9 -2 33l-25 235q-6 60 -30 85l-77 4v26z"/>
<glyph unicode="w" glyph-name="w" horiz-adv-x="712" d="M115 485l35 -2l22 -394q5 9 24 44.5t24 44.5t20.5 38t21 40l18 36t19.5 40.5t18 38.5t20 44t19 45l60 7q9 -185 27 -392l49 67q77 105 113 202l-20 117q20 22 51 22q52 0 52 -54q0 -64 -80.5 -188.5t-176.5 -240.5h-58l-24 349q-75 -151 -191 -349h-65l-19 22v394l-74 8 v26z"/>
<glyph unicode="x" glyph-name="x" horiz-adv-x="478" d="M29 450l101 34q5 1 13 1q37 0 58 -45q17 -35 46 -157q54 110 104 155t87 45q25 0 41 -15t16 -38q0 -21 -13.5 -37t-35.5 -21l-43 39q-71 -26 -134 -171q25 -92 44 -139q25 -58 70 -58q15 0 52 9v-30q-73 -29 -110 -29q-19 0 -34.5 7.5t-26.5 22.5t-19.5 29.5t-14.5 37.5 t-9.5 37t-8 37.5t-5.5 29.5q-35 -80 -85.5 -141.5t-105.5 -61.5q-28 0 -45.5 14t-17.5 40q0 22 14.5 35.5t35.5 15.5l46 -43q39 24 77 77t62 110q-34 135 -76 174l-83 10v26z"/>
<glyph unicode="y" glyph-name="y" horiz-adv-x="474" d="M-16 456l98 29q4 1 13 1q39 0 59 -42q12 -28 41 -173l33 -169q75 190 157 380h19l79 -26v-21l-51 -30q-33 -42 -55 -82.5t-59 -119.5q-83 -175 -127 -244q-113 -177 -226 -177q-35 0 -56.5 19t-21.5 47q0 22 15.5 37t37.5 18l59 -59q54 10 91.5 51t80.5 121l-64 304 q-15 71 -38 104l-85 6v26z"/>
<glyph unicode="z" glyph-name="z" horiz-adv-x="440" d="M373 490l61 -32l-345 -385l97 25q77 -33 104 -33q34 0 60 36l-55 61q19 36 48 36q20 0 34.5 -15.5t14.5 -43.5q0 -51 -40 -95q-43 -46 -102 -46q-24 0 -79 22q-53 21 -76 21q-14 0 -30 -9l-24 -43l-55 30l344 386l-99 -22q-55 29 -88 29q-41 0 -63 -32l53 -64 q-15 -32 -47 -32q-47 0 -47 58q0 57 47 103q39 38 90 38q22 0 75.5 -25t71.5 -25q15 0 31 8z"/>
<glyph unicode="{" glyph-name="braceleft" horiz-adv-x="486" d="M489 703l-7 -37q-73 -1 -105.5 -27t-45.5 -93l-16 -81q-17 -83 -52.5 -121t-111.5 -54q55 -13 79.5 -39.5t24.5 -73.5q0 -23 -6 -56l-16 -83q-10 -52 -10 -72q0 -60 111 -61l-8 -39q-105 0 -143 21.5t-38 82.5q0 29 10 79l17 85q6 33 6 53q0 46 -23.5 63.5t-86.5 17.5 h-16l8 44q13 -1 28 -1q65 0 97 29t46 100l20 102q16 85 69 123t156 38h13z"/>
<glyph unicode="|" glyph-name="bar" horiz-adv-x="500" d="M219 764h62v-1000h-62v1000z"/>
<glyph unicode="}" glyph-name="braceright" horiz-adv-x="486" d="M143 703h12q89 0 129.5 -27t40.5 -87q0 -25 -5 -47l-20 -102q-7 -36 -7 -54q0 -75 97 -75q9 0 30 1l-8 -44h-20q-71 0 -104.5 -29.5t-47.5 -104.5l-16 -85q-21 -106 -67.5 -144.5t-154.5 -38.5h-21l7 39q79 1 108.5 27t44.5 106l16 83q14 75 52 114t112 55 q-104 22 -104 108q0 26 8 67l16 81q6 34 6 49q0 35 -26.5 52.5t-84.5 18.5z"/>
<glyph unicode="~" glyph-name="asciitilde" horiz-adv-x="833" d="M746 370v-64q-102 -70 -189 -70q-30 0 -57 6.5t-91 29.5q-85 31 -134 31q-42 0 -83.5 -17t-105.5 -61v65q109 71 190 71q34 0 65 -8t110 -36q64 -24 106 -24q43 0 84.5 17t104.5 60z"/>
<glyph unicode=" " glyph-name="nbspace" horiz-adv-x="233"/>
<glyph unicode="¡" glyph-name="exclamdown" horiz-adv-x="338" d="M186 483q22 0 39 -17t17 -40t-16.5 -40t-39.5 -17q-24 0 -41 17t-17 40t17 40t41 17zM145 303h48l-45 -382q-9 -74 -25.5 -102t-51.5 -28q-21 0 -33 11.5t-12 31.5q0 25 17 87z"/>
<glyph unicode="¢" glyph-name="cent" d="M324 601h45l-19 -99h14q73 0 127 -22l-21 -113h-53l5 71q-37 20 -80 20l-79 -412q47 0 88 19l22 74h53l-23 -117q-63 -22 -121 -22q-15 0 -28 1l-19 -99h-45l19 101q-81 14 -124 62t-43 127q0 117 72 201.5t191 106.5zM218 48l78 406q-76 -24 -122.5 -95t-46.5 -164 q0 -119 91 -147z"/>
<glyph unicode="£" glyph-name="sterling" d="M467 547l-45 87h-2q-79 0 -120.5 -63.5t-65.5 -219.5h184v-46h-193q-26 -165 -144 -232l1 -2q47 5 69 5h297v-76h-469v57q74 16 108.5 68t54.5 180h-70v46h78q18 163 87 247.5t185 84.5q55 0 90 -20.5t35 -52.5q0 -25 -18.5 -40t-61.5 -23z"/>
<glyph unicode="¤" glyph-name="currency" horiz-adv-x="607" d="M98 693l101 -101q62 44 125 44q65 0 127 -44l100 101l35 -36l-100 -100q42 -60 42 -125t-42 -125l100 -100l-35 -36l-100 101q-60 -43 -127 -43q-65 0 -125 43l-101 -101l-35 36l101 100q-43 60 -43 125t43 125l-101 100zM323 586q-62 0 -107 -45t-45 -108q0 -64 45 -109 t109 -45q63 0 108 45t45 109t-45 108.5t-110 44.5z"/>
<glyph unicode="¥" glyph-name="yen" d="M56 664h215v-40l-61 -6l-11 -11l87 -270l201 262l-6 14l-48 11v40h183v-40l-60 -12l-145 -191h137v-41h-173l-77 -103h222v-41h-227l-33 -177l14 -14l67 -5v-40h-255v45h73l21 14l33 177h-211v41h219l-34 103h-156v41h139l-62 193l-52 10v40z"/>
<glyph unicode="¦" glyph-name="brokenbar" horiz-adv-x="500" d="M219 699h62v-370h-62v370zM219 199h62v-370h-62v370z"/>
<glyph unicode="§" glyph-name="section" horiz-adv-x="500" d="M475 695l-25 -129h-44l4 80q-49 30 -91 30q-46 0 -81.5 -29t-35.5 -67q0 -33 19.5 -48.5t106.5 -59.5q106 -55 106 -140q0 -118 -156 -188q83 -42 83 -108q0 -74 -64 -125t-156 -51q-61 0 -137 31l22 129h49l-3 -90q45 -26 90 -26q49 0 84.5 28.5t35.5 68.5q0 30 -21 51 t-81 51q-68 35 -89 55q-41 43 -41 101q0 124 152 184q-44 26 -61.5 50t-17.5 59q0 74 61 120t161 46q60 0 130 -23zM240 424q-111 -49 -111 -136q0 -39 24 -65t93 -61q58 34 83.5 67.5t25.5 74.5q0 38 -27 66.5t-88 53.5z"/>
<glyph unicode="¨" glyph-name="dieresis" horiz-adv-x="500" d="M167 642q0 20 15 35t35 15t35 -15t15 -35t-15 -35t-35 -15t-35 15t-15 35zM355 642q0 20 15 35t35 15t35 -15t15 -35t-15 -35t-35 -15t-35 15t-15 35z"/>
<glyph unicode="©" glyph-name="copyright" horiz-adv-x="900" d="M450 726q160 0 272.5 -114t112.5 -272t-112.5 -272t-272.5 -114t-272.5 114t-112.5 272t112.5 272t272.5 114zM450 686q-142 0 -241.5 -103t-99.5 -243t99.5 -243t241.5 -103t241.5 103t99.5 243t-99.5 243t-241.5 103zM607 252v-125q-70 -25 -145 -25 q-108 0 -175.5 65.5t-67.5 170.5t68.5 170.5t180.5 65.5q69 0 139 -23v-120h-43l-15 75q-35 22 -74 22q-79 0 -124 -55t-45 -135q0 -87 48 -138t111 -51q40 0 86 19l13 84h43z"/>
<glyph unicode="ª" glyph-name="ordfeminine" horiz-adv-x="367" d="M301 547h33q-9 -18 -24 -86l-23 -106q-6 -27 -6 -43q0 -26 32 -26q11 0 37 6v-18q-54 -21 -79 -21q-36 0 -36 50q-33 -30 -52 -40t-44 -10q-40 0 -62.5 28t-22.5 77q0 80 50.5 134.5t123.5 54.5q31 0 61 -13zM268 487l-25 37h-2q-61 0 -97.5 -44.5t-36.5 -117.5t53 -73 q34 0 75 40z"/>
<glyph unicode="«" glyph-name="guillemotleft" horiz-adv-x="442" d="M218 413l-13 -66l-138 -107l97 -108l-13 -65l-138 133l15 80zM415 413l-13 -66l-138 -107l97 -108l-13 -65l-138 133l15 80z"/>
<glyph unicode="¬" glyph-name="logicalnot" horiz-adv-x="833" d="M124 419h585v-245h-56v188h-529v57z"/>
<glyph unicode="®" glyph-name="registered" horiz-adv-x="900" d="M450 726q160 0 272.5 -114t112.5 -272t-112.5 -272t-272.5 -114t-272.5 114t-112.5 272t112.5 272t272.5 114zM450 686q-142 0 -241.5 -103t-99.5 -243t99.5 -243t241.5 -103t241.5 103t99.5 243t-99.5 243t-241.5 103zM246 560h211q162 0 162 -108q0 -89 -121 -114 q39 -6 61 -26.5t30.5 -45.5t16.5 -49.5t28.5 -40.5t58.5 -16h10v-36q-38 -8 -59 -8q-30 0 -52.5 9t-36 27.5t-20.5 32.5t-14 36q-9 26 -16 40.5t-19 29t-30 20.5t-44 6q-11 0 -33 -2v-150l63 -7v-37h-191v36l53 7v352l-58 10v34zM379 355h24q128 0 128 82q0 86 -119 86 q-21 0 -33 -1v-167z"/>
<glyph unicode="°" glyph-name="degree" horiz-adv-x="330" d="M215 710q56 0 96 -40.5t40 -97.5q0 -58 -40.5 -98.5t-98.5 -40.5t-97.5 40t-39.5 98q0 59 40.5 99t99.5 40zM212 670q-40 0 -68.5 -29t-28.5 -69q0 -41 28.5 -70t69.5 -29t69.5 29t28.5 70t-28.5 69.5t-70.5 28.5z"/>
<glyph unicode="±" glyph-name="plusminus" horiz-adv-x="833" d="M102 77h585v-58h-585v58zM365 350h-263v58h263v168h58v-168h264v-58h-264v-168h-58v168z"/>
<glyph unicode="²" glyph-name="twosuperior" horiz-adv-x="350" d="M102 314h168l22 50h40l-22 -106h-304l9 44q163 106 216 157t53 109q0 28 -17 44t-47 16q-26 0 -53 -12l-12 -62q-22 -12 -37 -12q-35 0 -35 29q0 38 49 67.5t110 29.5q53 0 84 -25t31 -69q0 -57 -51.5 -109.5t-203.5 -150.5z"/>
<glyph unicode="³" glyph-name="threesuperior" horiz-adv-x="350" d="M162 614l-9 -57q-23 -9 -36 -9q-14 0 -23.5 9t-9.5 22q0 35 47 62t109 27q52 0 83 -23t31 -62q0 -37 -28 -66.5t-76 -42.5q80 -11 80 -79q0 -58 -57 -101t-134 -43q-51 0 -84.5 19.5t-33.5 48.5q0 17 12 27.5t31 10.5q10 0 26 -4l9 -51q22 -14 48 -14q47 0 78.5 28 t31.5 71q0 28 -19 44.5t-50 16.5l-24 -1q-6 -1 -22 -2l6 43q133 0 133 83q0 27 -17.5 43.5t-46.5 16.5q-25 0 -55 -17z"/>
<glyph unicode="´" glyph-name="acute" horiz-adv-x="500" d="M399 736h99l-183 -190h-49z"/>
<glyph unicode="µ" glyph-name="mu" horiz-adv-x="546" d="M95 432h72l-47 -220q-10 -52 -10 -75q0 -39 22 -62t56 -23q55 0 85.5 43.5t43.5 102.5l51 234h73l-57 -264q-9 -43 -9 -60q0 -22 12 -39t34 -17q24 0 41 17t23.5 38t15 38t17.5 17q12 0 12 -19q0 -58 -37 -105.5t-89 -47.5q-40 0 -60 26.5t-20 68.5v6h-2 q-44 -101 -135 -101q-95 0 -108 99h-2l-8 -44q-5 -26 -13 -79.5t-14 -94.5t-5 -40q-8 -35 -40 -35q-37 0 -37 45q0 7 14 61.5t34.5 135t31.5 133.5z"/>
<glyph unicode="¶" glyph-name="paragraph" horiz-adv-x="484" d="M458 671v-36l-62 -10v-704h-49v709h-76v-349h-4q-125 0 -183 46.5t-58 147.5q0 102 56.5 149t179.5 47h196z"/>
<glyph unicode="¸" glyph-name="cedilla" horiz-adv-x="500" d="M159 5h36l-12 -62q12 2 21 2q26 0 44.5 -14t18.5 -42q0 -36 -33.5 -72t-103.5 -36q-32 0 -68 11l7 35q27 -7 57 -7q27 0 51.5 12t24.5 37q0 30 -42 30q-10 0 -22 -2z"/>
<glyph unicode="¹" glyph-name="onesuperior" horiz-adv-x="350" d="M259 668h22l-74 -367l4 -9h57v-34h-201v38h69l7 7l60 301l-2 2l-95 -11v33z"/>
<glyph unicode="º" glyph-name="ordmasculine" horiz-adv-x="368" d="M227 547q46 0 76 -31.5t30 -81.5q0 -70 -44.5 -125.5t-119.5 -55.5q-46 0 -76 31.5t-30 81.5q0 70 44.5 125.5t119.5 55.5zM218 523q-39 0 -70 -46t-31 -110q0 -90 61 -90q39 0 70 46t31 110q0 90 -61 90z"/>
<glyph unicode="»" glyph-name="guillemotright" horiz-adv-x="442" d="M60 413l139 -133l-15 -80l-190 -133l12 65l138 108l-96 107zM257 413l139 -133l-15 -80l-190 -133l12 65l138 108l-96 107z"/>
<glyph unicode="¼" glyph-name="onequarter" horiz-adv-x="885" d="M259 668h22l-74 -367l4 -9h57v-34h-201v38h69l7 7l60 301l-2 2l-95 -11v33zM699 671h61l-556 -671h-61zM780 406h46l-49 -245h71l-10 -47h-70l-28 -136h-61l28 136h-204l9 44zM748 321l-170 -160h137z"/>
<glyph unicode="½" glyph-name="onehalf" horiz-adv-x="885" d="M259 668h22l-74 -367l4 -9h57v-34h-201v38h69l7 7l60 301l-2 2l-95 -11v33zM699 671h61l-556 -671h-61zM587 56h168l22 50h40l-22 -106h-304l9 44q123 81 178 125q91 75 91 141q0 29 -17.5 44.5t-48.5 15.5q-24 0 -51 -12l-12 -62q-24 -12 -38 -12q-16 0 -25 8t-9 21 q0 38 49 67.5t110 29.5q53 0 84 -25t31 -69q0 -66 -84 -138q-45 -40 -171 -122z"/>
<glyph unicode="¾" glyph-name="threequarters" horiz-adv-x="885" d="M162 614l-9 -57q-23 -9 -36 -9q-14 0 -23.5 9t-9.5 22q0 35 47 62t109 27q52 0 83 -23t31 -62q0 -37 -28 -66.5t-76 -42.5q80 -11 80 -79q0 -58 -57 -101t-134 -43q-51 0 -84.5 19.5t-33.5 48.5q0 17 12 27.5t31 10.5q10 0 26 -4l9 -51q22 -14 48 -14q47 0 78.5 28 t31.5 71q0 28 -19 44.5t-50 16.5l-24 -1q-6 -1 -22 -2l6 43q133 0 133 83q0 27 -17.5 43.5t-46.5 16.5q-25 0 -55 -17zM699 671h61l-556 -671h-61zM780 406h46l-49 -245h71l-10 -47h-70l-28 -136h-61l28 136h-204l9 44zM748 321l-170 -160h138z"/>
<glyph unicode="¿" glyph-name="questiondown" horiz-adv-x="486" d="M284 483q22 0 39.5 -17.5t17.5 -39.5q0 -23 -17 -40t-40 -17t-40 17t-17 40t17 40t40 17zM217 186l23 117h52l-28 -146q-182 -68 -182 -213q0 -55 28.5 -80.5t92.5 -26.5l60 99q10 1 19 1q50 0 50 -40q0 -45 -48.5 -75.5t-119.5 -30.5q-82 0 -128 38.5t-46 106.5 q0 81 54 139t173 111z"/>
<glyph unicode="À" glyph-name="Agrave" horiz-adv-x="606" d="M345 677h66l108 -616l16 -18l49 -5v-38h-219v38l59 5l7 15l-31 190h-243l-107 -190l8 -15l61 -5v-38h-198v38l55 5zM345 579l-163 -288h209zM251 896h105l62 -153h-57z"/>
<glyph unicode="Á" glyph-name="Aacute" horiz-adv-x="606" d="M345 677h66l108 -616l16 -18l49 -5v-38h-219v38l59 5l7 15l-31 190h-243l-107 -190l8 -15l61 -5v-38h-198v38l55 5zM345 579l-163 -288h209zM466 896h108l-188 -152h-59z"/>
<glyph unicode="Â" glyph-name="Acircumflex" horiz-adv-x="606" d="M345 677h66l108 -616l16 -18l49 -5v-38h-219v38l59 5l7 15l-31 190h-243l-107 -190l8 -15l61 -5v-38h-198v38l55 5zM345 579l-163 -288h209zM373 896h63l76 -153h-57l-59 95l-111 -95h-58z"/>
<glyph unicode="Ã" glyph-name="Atilde" horiz-adv-x="606" d="M345 677h66l108 -616l16 -18l49 -5v-38h-219v38l59 5l7 15l-31 190h-243l-107 -190l8 -15l61 -5v-38h-198v38l55 5zM345 579l-163 -288h209zM509 877h44q-5 -59 -38 -83.5t-70 -24.5q-31 0 -69 18l-24 11q-31 14 -42 14q-17 0 -28.5 -16t-14.5 -38h-45q7 50 36 78.5 t72 28.5q28 0 62 -16l21 -10q38 -18 50 -18q34 0 46 56z"/>
<glyph unicode="Ä" glyph-name="Adieresis" horiz-adv-x="606" d="M345 677h66l108 -616l16 -18l49 -5v-38h-219v38l59 5l7 15l-31 190h-243l-107 -190l8 -15l61 -5v-38h-198v38l55 5zM345 579l-163 -288h209zM245 818q0 20 15 35t35 15t35 -15t15 -35t-15 -35t-35 -15t-35 15t-15 35zM433 818q0 20 15 35t35 15t35 -15t15 -35t-15 -35 t-35 -15t-35 15t-15 35z"/>
<glyph unicode="Å" glyph-name="Aring" horiz-adv-x="606" d="M345 677h66l108 -616l16 -18l49 -5v-38h-219v38l59 5l7 15l-31 190h-243l-107 -190l8 -15l61 -5v-38h-198v38l55 5zM345 579l-163 -288h209zM284 848q0 46 31 77t77 31t77 -31t31 -77t-31 -77t-77 -31t-77 31t-31 77zM326 848q0 -27 19.5 -46.5t46.5 -19.5t46.5 19.5 t19.5 46.5t-19.5 46.5t-46.5 19.5t-46.5 -19.5t-19.5 -46.5z"/>
<glyph unicode="Æ" glyph-name="AE" horiz-adv-x="872" d="M338 671h541l-29 -146h-47v85l-11 15h-215l-49 -254h152l17 14l23 73h43l-43 -219h-37v72l-11 14h-153l-54 -279h255l17 16l35 101h46l-32 -163h-483v38l63 5l16 15l39 198h-241l-159 -195l2 -14l64 -9v-38h-202v38l61 13l456 559l-6 15l-58 6v40zM494 641l-276 -338h212 z"/>
<glyph unicode="Ç" glyph-name="Ccedilla" horiz-adv-x="604" d="M622 649l-28 -154h-42v96l-8 19q-49 25 -105 25q-123 0 -208 -97q-47 -53 -71 -126.5t-24 -151.5q0 -27 3.5 -52t16 -58t34 -56.5t62 -40.5t94.5 -17q43 0 84 13l19 17l45 115h42l-27 -158q-91 -32 -195 -35l-9 -45q12 2 21 2q26 0 44.5 -14t18.5 -42q0 -36 -33.5 -72 t-103.5 -36q-32 0 -68 11l7 35q27 -7 57 -7q27 0 51.5 12t24.5 37q0 30 -42 30q-10 0 -22 -2l18 93q-100 5 -167 76q-71 76 -71 201q0 95 35.5 175t93.5 131.5t129 80.5t144 29q88 0 180 -34z"/>
<glyph unicode="È" glyph-name="Egrave" horiz-adv-x="544" d="M84 671h468l-28 -146h-48v85l-11 15h-215l-48 -254h150l18 14l21 73h44l-42 -219h-42l5 72l-12 14h-151l-53 -279h253l18 16l34 101h46l-32 -163h-485v38l64 5l16 15l106 555l-10 15l-66 5v38zM220 896h105l62 -153h-57z"/>
<glyph unicode="É" glyph-name="Eacute" horiz-adv-x="544" d="M84 671h468l-28 -146h-48v85l-11 15h-215l-48 -254h150l18 14l21 73h44l-42 -219h-42l5 72l-12 14h-151l-53 -279h253l18 16l34 101h46l-32 -163h-485v38l64 5l16 15l106 555l-10 15l-66 5v38zM435 896h108l-188 -152h-59z"/>
<glyph unicode="Ê" glyph-name="Ecircumflex" horiz-adv-x="544" d="M84 671h468l-28 -146h-48v85l-11 15h-215l-48 -254h150l18 14l21 73h44l-42 -219h-42l5 72l-12 14h-151l-53 -279h253l18 16l34 101h46l-32 -163h-485v38l64 5l16 15l106 555l-10 15l-66 5v38zM342 896h63l76 -153h-57l-59 95l-111 -95h-58z"/>
<glyph unicode="Ë" glyph-name="Edieresis" horiz-adv-x="544" d="M84 671h468l-28 -146h-48v85l-11 15h-215l-48 -254h150l18 14l21 73h44l-42 -219h-42l5 72l-12 14h-151l-53 -279h253l18 16l34 101h46l-32 -163h-485v38l64 5l16 15l106 555l-10 15l-66 5v38zM214 818q0 20 15 35t35 15t35 -15t15 -35t-15 -35t-35 -15t-35 15t-15 35z M402 818q0 20 15 35t35 15t35 -15t15 -35t-15 -35t-35 -15t-35 15t-15 35z"/>
<glyph unicode="Ì" glyph-name="Igrave" horiz-adv-x="312" d="M92 671h244v-38l-66 -5l-16 -15l-106 -555l12 -15l64 -5v-38h-244v38l64 5l16 15l106 555l-10 15l-64 5v38zM104 896h105l62 -153h-57z"/>
<glyph unicode="Í" glyph-name="Iacute" horiz-adv-x="312" d="M92 671h244v-38l-66 -5l-16 -15l-106 -555l12 -15l64 -5v-38h-244v38l64 5l16 15l106 555l-10 15l-64 5v38zM319 896h108l-188 -152h-59z"/>
<glyph unicode="Î" glyph-name="Icircumflex" horiz-adv-x="312" d="M92 671h244v-38l-66 -5l-16 -15l-106 -555l12 -15l64 -5v-38h-244v38l64 5l16 15l106 555l-10 15l-64 5v38zM226 896h63l76 -153h-57l-59 95l-111 -95h-58z"/>
<glyph unicode="Ï" glyph-name="Idieresis" horiz-adv-x="312" d="M92 671h244v-38l-66 -5l-16 -15l-106 -555l12 -15l64 -5v-38h-244v38l64 5l16 15l106 555l-10 15l-64 5v38zM98 818q0 20 15 35t35 15t35 -15t15 -35t-15 -35t-35 -15t-35 15t-15 35zM286 818q0 20 15 35t35 15t35 -15t15 -35t-15 -35t-35 -15t-35 15t-15 35z"/>
<glyph unicode="Ð" glyph-name="Eth" horiz-adv-x="657" d="M107 331h-86l5 46h89l46 236l-10 15l-65 5v38h227q153 0 232.5 -65.5t79.5 -191.5q0 -183 -118.5 -298.5t-321.5 -115.5h-211v38l64 5l16 15zM204 377h150l-9 -46h-150l-53 -285h55q142 0 221 77q49 48 79.5 132t30.5 172q0 198 -223 198h-54z"/>
<glyph unicode="Ñ" glyph-name="Ntilde" horiz-adv-x="686" d="M80 671h172v-25l239 -507l91 474l-10 15l-64 5v38h212v-38l-66 -5l-16 -15l-116 -613h-58l-265 556l-95 -498l12 -15l64 -5v-38h-212v38l64 5l16 15l106 555l-10 15l-64 5v38zM549 877h44q-5 -59 -38 -83.5t-70 -24.5q-31 0 -69 18l-24 11q-32 14 -42 14q-17 0 -28.5 -16 t-14.5 -38h-45q7 50 36 78.5t72 28.5q28 0 62 -16l21 -10q38 -18 50 -18q34 0 46 56z"/>
<glyph unicode="Ò" glyph-name="Ograve" horiz-adv-x="708" d="M407 683q99 0 168 -57q93 -78 93 -218q0 -104 -45 -200.5t-126 -155.5q-87 -64 -192 -64q-113 0 -188 73q-77 77 -77 204q0 99 42 191.5t119 153.5q92 73 206 73zM399 635q-46 0 -94.5 -26.5t-87.5 -82.5q-40 -56 -60.5 -129t-20.5 -139q0 -93 38 -151q46 -71 134 -71 q111 0 188 119q76 118 76 259q0 103 -46 162q-47 59 -127 59zM302 896h105l62 -153h-57z"/>
<glyph unicode="Ó" glyph-name="Oacute" horiz-adv-x="708" d="M407 683q99 0 168 -57q93 -78 93 -218q0 -104 -45 -200.5t-126 -155.5q-87 -64 -192 -64q-113 0 -188 73q-77 77 -77 204q0 99 42 191.5t119 153.5q92 73 206 73zM399 635q-46 0 -94.5 -26.5t-87.5 -82.5q-40 -56 -60.5 -129t-20.5 -139q0 -93 38 -151q46 -71 134 -71 q111 0 188 119q76 118 76 259q0 103 -46 162q-47 59 -127 59zM503 896h108l-188 -152h-59z"/>
<glyph unicode="Ô" glyph-name="Ocircumflex" horiz-adv-x="708" d="M407 683q99 0 168 -57q93 -78 93 -218q0 -104 -45 -200.5t-126 -155.5q-87 -64 -192 -64q-113 0 -188 73q-77 77 -77 204q0 99 42 191.5t119 153.5q92 73 206 73zM399 635q-46 0 -94.5 -26.5t-87.5 -82.5q-40 -56 -60.5 -129t-20.5 -139q0 -93 38 -151q46 -71 134 -71 q111 0 188 119q76 118 76 259q0 103 -46 162q-47 59 -127 59zM410 896h63l76 -153h-57l-59 95l-111 -95h-58z"/>
<glyph unicode="Õ" glyph-name="Otilde" horiz-adv-x="708" d="M407 683q99 0 168 -57q93 -78 93 -218q0 -104 -45 -200.5t-126 -155.5q-87 -64 -192 -64q-113 0 -188 73q-77 77 -77 204q0 99 42 191.5t119 153.5q92 73 206 73zM399 635q-46 0 -94.5 -26.5t-87.5 -82.5q-40 -56 -60.5 -129t-20.5 -139q0 -93 38 -151q46 -71 134 -71 q111 0 188 119q76 118 76 259q0 103 -46 162q-47 59 -127 59zM546 877h44q-5 -59 -38 -83.5t-70 -24.5q-31 0 -69 18l-24 11q-31 14 -42 14q-17 0 -28.5 -16t-14.5 -38h-45q7 50 36 78.5t72 28.5q28 0 62 -16l21 -10q38 -18 50 -18q34 0 46 56z"/>
<glyph unicode="Ö" glyph-name="Odieresis" horiz-adv-x="708" d="M407 683q99 0 168 -57q93 -78 93 -218q0 -104 -45 -200.5t-126 -155.5q-87 -64 -192 -64q-113 0 -188 73q-77 77 -77 204q0 99 42 191.5t119 153.5q92 73 206 73zM399 635q-46 0 -94.5 -26.5t-87.5 -82.5q-40 -56 -60.5 -129t-20.5 -139q0 -93 38 -151q46 -71 134 -71 q111 0 188 119q76 118 76 259q0 103 -46 162q-47 59 -127 59zM282 818q0 20 15 35t35 15t35 -15t15 -35t-15 -35t-35 -15t-35 15t-15 35zM470 818q0 20 15 35t35 15t35 -15t15 -35t-15 -35t-35 -15t-35 15t-15 35z"/>
<glyph unicode="×" glyph-name="multiply" horiz-adv-x="833" d="M178 571l233 -233l232 233l40 -40l-232 -233l232 -232l-40 -40l-232 232l-233 -232l-39 40l232 232l-232 233z"/>
<glyph unicode="Ø" glyph-name="Oslash" horiz-adv-x="707" d="M617 720l-55 -84q106 -81 106 -228q0 -173 -107 -296.5t-257 -123.5q-76 0 -141 37l-64 -99l-32 24l64 99q-91 79 -91 216q0 170 108.5 294t257.5 124q63 0 119 -25l55 85zM524 577l-326 -498q47 -43 110 -43q72 0 133.5 56.5t95.5 144t34 179.5q0 102 -47 161zM171 112 l321 495q-44 28 -93 28q-73 0 -134.5 -57.5t-94.5 -143.5t-33 -174q0 -89 34 -148z"/>
<glyph unicode="Ù" glyph-name="Ugrave" horiz-adv-x="660" d="M73 671h244v-38l-66 -5l-16 -15l-71 -364q-10 -53 -10 -74q0 -53 27 -85q35 -42 115 -42q103 0 155 69q33 45 50 132l69 364l-10 15l-64 5v38h208v-38l-64 -5l-16 -15l-71 -373q-24 -129 -86 -186q-73 -66 -196 -66q-108 0 -160 46q-47 41 -47 120q0 34 12 95l71 364 l-10 15l-64 5v38zM278 896h105l62 -153h-57z"/>
<glyph unicode="Ú" glyph-name="Uacute" horiz-adv-x="660" d="M73 671h244v-38l-66 -5l-16 -15l-71 -364q-10 -53 -10 -74q0 -53 27 -85q35 -42 115 -42q103 0 155 69q33 45 50 132l69 364l-10 15l-64 5v38h208v-38l-64 -5l-16 -15l-71 -373q-24 -129 -86 -186q-73 -66 -196 -66q-108 0 -160 46q-47 41 -47 120q0 34 12 95l71 364 l-10 15l-64 5v38zM493 896h108l-188 -152h-59z"/>
<glyph unicode="Û" glyph-name="Ucircumflex" horiz-adv-x="660" d="M73 671h244v-38l-66 -5l-16 -15l-71 -364q-10 -53 -10 -74q0 -53 27 -85q35 -42 115 -42q103 0 155 69q33 45 50 132l69 364l-10 15l-64 5v38h208v-38l-64 -5l-16 -15l-71 -373q-24 -129 -86 -186q-73 -66 -196 -66q-108 0 -160 46q-47 41 -47 120q0 34 12 95l71 364 l-10 15l-64 5v38zM400 896h63l76 -153h-57l-59 95l-111 -95h-58z"/>
<glyph unicode="Ü" glyph-name="Udieresis" horiz-adv-x="660" d="M73 671h244v-38l-66 -5l-16 -15l-71 -364q-10 -53 -10 -74q0 -53 27 -85q35 -42 115 -42q103 0 155 69q33 45 50 132l69 364l-10 15l-64 5v38h208v-38l-64 -5l-16 -15l-71 -373q-24 -129 -86 -186q-73 -66 -196 -66q-108 0 -160 46q-47 41 -47 120q0 34 12 95l71 364 l-10 15l-64 5v38zM272 818q0 20 15 35t35 15t35 -15t15 -35t-15 -35t-35 -15t-35 15t-15 35zM460 818q0 20 15 35t35 15t35 -15t15 -35t-15 -35t-35 -15t-35 15t-15 35z"/>
<glyph unicode="Ý" glyph-name="Yacute" horiz-adv-x="560" d="M30 671h243v-38l-65 -5l-15 -15l88 -283l209 283l-10 15l-64 5v38h224v-38l-66 -5l-16 -15l-254 -332l-42 -223l12 -15l64 -5v-38h-244v38l64 5l16 15l42 214l-111 341l-10 15l-65 5v38zM443 896h108l-188 -152h-59z"/>
<glyph unicode="Þ" glyph-name="Thorn" horiz-adv-x="544" d="M86 671h243v-38l-65 -5l-16 -15l-13 -68h39q130 0 188.5 -38.5t58.5 -126.5q0 -111 -86 -182.5t-219 -71.5q-30 0 -63 2l-14 -70l7 -15l64 -5v-38h-236v38l63 5l16 15l108 555l-12 15l-63 5v38zM226 500l-64 -325q17 -1 32 -1q111 0 170.5 50.5t59.5 145.5 q0 68 -37.5 99.5t-116.5 31.5q-11 0 -44 -1z"/>
<glyph unicode="ß" glyph-name="germandbls" horiz-adv-x="570" d="M54 123l42 287q48 328 273 328q69 0 109 -34.5t40 -93.5q0 -52 -32 -173q-29 3 -45 3q-51 0 -81 -19.5t-30 -51.5q0 -22 14.5 -39.5t60.5 -52.5q64 -49 82 -72.5t18 -60.5q0 -67 -52.5 -110t-132.5 -43q-59 0 -94.5 23.5t-35.5 63.5q0 23 14.5 38t36.5 15q19 0 44 -19 l-18 -50q28 -35 73 -35q40 0 65 22.5t25 59.5q0 32 -14 47.5t-87 72.5q-63 49 -63 103q0 60 43.5 100.5t118.5 48.5q23 87 23 130q0 83 -87 83q-150 0 -189 -263l-45 -305q-13 -87 -28.5 -135.5t-46.5 -93.5q-36 -53 -78 -83t-79 -30q-23 0 -38 14.5t-15 37.5q0 24 22 41 l104 -27q31 35 47.5 90t35.5 183z"/>
<glyph unicode="à" glyph-name="agrave" horiz-adv-x="534" d="M414 482h52q-17 -43 -38 -143l-36 -177q-10 -53 -10 -67q0 -25 13 -38q12 -12 35 -12q22 0 62 13v-30q-40 -19 -76 -29q-29 -8 -47 -8q-38 0 -52 31q-11 25 -9 53q-26 -28 -55 -49q-47 -35 -97 -35q-72 0 -109 61q-27 44 -27 114q0 149 98 243q77 74 186 74q46 0 90 -23z M361 382l-40 60q-44 5 -85 -14t-68 -52q-29 -35 -46.5 -90.5t-17.5 -111.5q0 -53 14 -77q22 -44 72 -44q33 0 69 23q24 16 50 42zM185 736h99l60 -190h-50z"/>
<glyph unicode="á" glyph-name="aacute" horiz-adv-x="534" d="M414 482h52q-17 -43 -38 -143l-36 -177q-10 -53 -10 -67q0 -25 13 -38q12 -12 35 -12q22 0 62 13v-30q-40 -19 -76 -29q-29 -8 -47 -8q-38 0 -52 31q-11 25 -9 53q-26 -28 -55 -49q-47 -35 -97 -35q-72 0 -109 61q-27 44 -27 114q0 149 98 243q77 74 186 74q46 0 90 -23z M361 382l-40 60q-44 5 -85 -14t-68 -52q-29 -35 -46.5 -90.5t-17.5 -111.5q0 -53 14 -77q22 -44 72 -44q33 0 69 23q24 16 50 42zM416 736h99l-183 -190h-49z"/>
<glyph unicode="â" glyph-name="acircumflex" horiz-adv-x="534" d="M414 482h52q-17 -43 -38 -143l-36 -177q-10 -53 -10 -67q0 -25 13 -38q12 -12 35 -12q22 0 62 13v-30q-40 -19 -76 -29q-29 -8 -47 -8q-38 0 -52 31q-11 25 -9 53q-26 -28 -55 -49q-47 -35 -97 -35q-72 0 -109 61q-27 44 -27 114q0 149 98 243q77 74 186 74q46 0 90 -23z M361 382l-40 60q-44 5 -85 -14t-68 -52q-29 -35 -46.5 -90.5t-17.5 -111.5q0 -53 14 -77q22 -44 72 -44q33 0 69 23q24 16 50 42zM318 736h65l74 -190h-55l-61 141l-114 -141h-55z"/>
<glyph unicode="ã" glyph-name="atilde" horiz-adv-x="534" d="M414 482h52q-17 -43 -38 -143l-36 -177q-10 -53 -10 -67q0 -25 13 -38q12 -12 35 -12q22 0 62 13v-30q-40 -19 -76 -29q-29 -8 -47 -8q-38 0 -52 31q-11 25 -9 53q-26 -28 -55 -49q-47 -35 -97 -35q-72 0 -109 61q-27 44 -27 114q0 149 98 243q77 74 186 74q46 0 90 -23z M361 382l-40 60q-44 5 -85 -14t-68 -52q-29 -35 -46.5 -90.5t-17.5 -111.5q0 -53 14 -77q22 -44 72 -44q33 0 69 23q24 16 50 42zM451 708h42q-5 -51 -36 -85.5t-72 -34.5q-31 0 -71 22l-18 10q-33 18 -46 18q-39 0 -45 -65h-43q7 49 34 84.5t72 35.5q28 0 63 -20l24 -14 q32 -18 46 -18q40 0 50 67z"/>
<glyph unicode="ä" glyph-name="adieresis" horiz-adv-x="534" d="M414 482h52q-17 -43 -38 -143l-36 -177q-10 -53 -10 -67q0 -25 13 -38q12 -12 35 -12q22 0 62 13v-30q-40 -19 -76 -29q-29 -8 -47 -8q-38 0 -52 31q-11 25 -9 53q-26 -28 -55 -49q-47 -35 -97 -35q-72 0 -109 61q-27 44 -27 114q0 149 98 243q77 74 186 74q46 0 90 -23z M361 382l-40 60q-44 5 -85 -14t-68 -52q-29 -35 -46.5 -90.5t-17.5 -111.5q0 -53 14 -77q22 -44 72 -44q33 0 69 23q24 16 50 42zM184 642q0 20 15 35t35 15t35 -15t15 -35t-15 -35t-35 -15t-35 15t-15 35zM372 642q0 20 15 35t35 15t35 -15t15 -35t-15 -35t-35 -15t-35 15 t-15 35z"/>
<glyph unicode="å" glyph-name="aring" horiz-adv-x="534" d="M414 482h52q-17 -43 -38 -143l-36 -177q-10 -53 -10 -67q0 -25 13 -38q12 -12 35 -12q22 0 62 13v-30q-40 -19 -76 -29q-29 -8 -47 -8q-38 0 -52 31q-11 25 -9 53q-26 -28 -55 -49q-47 -35 -97 -35q-72 0 -109 61q-27 44 -27 114q0 149 98 243q77 74 186 74q46 0 90 -23z M361 382l-40 60q-44 5 -85 -14t-68 -52q-29 -35 -46.5 -90.5t-17.5 -111.5q0 -53 14 -77q22 -44 72 -44q33 0 69 23q24 16 50 42zM225 665q0 46 31 77t77 31t77 -31t31 -77t-31 -77t-77 -31t-77 31t-31 77zM267 665q0 -27 19.5 -46.5t46.5 -19.5t46.5 19.5t19.5 46.5 t-19.5 46.5t-46.5 19.5t-46.5 -19.5t-19.5 -46.5z"/>
<glyph unicode="æ" glyph-name="ae" horiz-adv-x="675" d="M617 128v-47q-94 -90 -194 -90q-85 0 -131 77q-105 -77 -189 -77q-46 0 -73 27.5t-27 74.5q0 147 286 175l12 61q6 34 6 48q0 30 -17.5 47t-48.5 17q-26 0 -68 -18l-16 -82h-98q2 62 60.5 102t147.5 40q47 0 72.5 -15.5t37.5 -52.5q82 68 149 68q47 0 75 -27t28 -72 q0 -68 -72.5 -111t-200.5 -51q-3 -21 -3 -42q0 -61 27 -95.5t74 -34.5q76 0 163 78zM283 100q-7 36 -7 67q0 36 5 64q-101 -14 -144.5 -41t-43.5 -75q0 -31 17 -48t47 -17q57 0 126 50zM361 256q88 6 142 41.5t54 88.5q0 23 -15 39t-37 16q-47 0 -84 -47.5t-60 -137.5z"/>
<glyph unicode="ç" glyph-name="ccedilla" horiz-adv-x="400" d="M313 360l-58 77q-66 -5 -106 -64q-45 -67 -45 -183q0 -137 94 -137q74 0 158 80v-46q-39 -41 -88.5 -67.5t-95.5 -28.5l-9 -48q12 2 21 2q26 0 44.5 -14t18.5 -42q0 -36 -33.5 -72t-103.5 -36q-32 0 -68 11l7 35q27 -7 57 -7q27 0 51.5 12t24.5 37q0 30 -42 30 q-10 0 -22 -2l19 97q-17 3 -35 13t-37.5 29.5t-32 55.5t-12.5 82q0 126 81.5 217.5t179.5 91.5q45 0 70 -20t25 -48q0 -24 -18.5 -39t-44.5 -16z"/>
<glyph unicode="è" glyph-name="egrave" horiz-adv-x="426" d="M368 128v-46q-91 -91 -193 -91q-45 0 -77 18t-48 47t-23 57.5t-7 57.5q0 71 31 142t92 120.5t135 49.5q46 0 74 -26.5t28 -70.5q0 -41 -23.5 -72t-64.5 -49.5t-86 -28.5t-99 -14q-3 -19 -3 -41q0 -57 24.5 -95.5t76.5 -38.5q35 0 68 14.5t49.5 27t45.5 39.5zM112 256 q75 3 135.5 38.5t60.5 90.5q0 25 -14.5 41.5t-37.5 16.5q-9 0 -19 -2t-28 -12.5t-34 -28.5t-33.5 -55.5t-29.5 -88.5zM148 736h99l60 -190h-50z"/>
<glyph unicode="é" glyph-name="eacute" horiz-adv-x="426" d="M368 128v-46q-91 -91 -193 -91q-45 0 -77 18t-48 47t-23 57.5t-7 57.5q0 71 31 142t92 120.5t135 49.5q46 0 74 -26.5t28 -70.5q0 -41 -23.5 -72t-64.5 -49.5t-86 -28.5t-99 -14q-3 -19 -3 -41q0 -57 24.5 -95.5t76.5 -38.5q35 0 68 14.5t49.5 27t45.5 39.5zM112 256 q75 3 135.5 38.5t60.5 90.5q0 25 -14.5 41.5t-37.5 16.5q-9 0 -19 -2t-28 -12.5t-34 -28.5t-33.5 -55.5t-29.5 -88.5zM379 736h99l-183 -190h-49z"/>
<glyph unicode="ê" glyph-name="ecircumflex" horiz-adv-x="426" d="M368 128v-46q-91 -91 -193 -91q-45 0 -77 18t-48 47t-23 57.5t-7 57.5q0 71 31 142t92 120.5t135 49.5q46 0 74 -26.5t28 -70.5q0 -41 -23.5 -72t-64.5 -49.5t-86 -28.5t-99 -14q-3 -19 -3 -41q0 -57 24.5 -95.5t76.5 -38.5q35 0 68 14.5t49.5 27t45.5 39.5zM112 256 q75 3 135.5 38.5t60.5 90.5q0 25 -14.5 41.5t-37.5 16.5q-9 0 -19 -2t-28 -12.5t-34 -28.5t-33.5 -55.5t-29.5 -88.5zM281 736h65l74 -190h-55l-61 141l-114 -141h-55z"/>
<glyph unicode="ë" glyph-name="edieresis" horiz-adv-x="426" d="M368 128v-46q-91 -91 -193 -91q-45 0 -77 18t-48 47t-23 57.5t-7 57.5q0 71 31 142t92 120.5t135 49.5q46 0 74 -26.5t28 -70.5q0 -41 -23.5 -72t-64.5 -49.5t-86 -28.5t-99 -14q-3 -19 -3 -41q0 -57 24.5 -95.5t76.5 -38.5q35 0 68 14.5t49.5 27t45.5 39.5zM112 256 q75 3 135.5 38.5t60.5 90.5q0 25 -14.5 41.5t-37.5 16.5q-9 0 -19 -2t-28 -12.5t-34 -28.5t-33.5 -55.5t-29.5 -88.5zM140 642q0 20 15 35t35 15t35 -15t15 -35t-15 -35t-35 -15t-35 15t-15 35zM328 642q0 20 15 35t35 15t35 -15t15 -35t-15 -35t-35 -15t-35 15t-15 35z"/>
<glyph unicode="ì" glyph-name="igrave" horiz-adv-x="286" d="M180 482h26l-72 -373q-3 -15 -3 -23q0 -41 43 -41q34 0 79 13v-30q-87 -37 -138 -37q-67 0 -67 69q0 23 6 51l60 298l-82 15v26zM61 736h99l60 -190h-50z"/>
<glyph unicode="í" glyph-name="iacute" horiz-adv-x="286" d="M180 482h26l-72 -373q-3 -15 -3 -23q0 -41 43 -41q34 0 79 13v-30q-87 -37 -138 -37q-67 0 -67 69q0 23 6 51l60 298l-82 15v26zM279 736h99l-183 -190h-49z"/>
<glyph unicode="î" glyph-name="icircumflex" horiz-adv-x="286" d="M180 482h26l-72 -373q-3 -15 -3 -23q0 -41 43 -41q34 0 79 13v-30q-87 -37 -138 -37q-67 0 -67 69q0 23 6 51l60 298l-82 15v26zM181 736h65l74 -190h-55l-61 141l-114 -141h-55z"/>
<glyph unicode="ï" glyph-name="idieresis" horiz-adv-x="286" d="M180 482h26l-72 -373q-3 -15 -3 -23q0 -41 43 -41q34 0 79 13v-30q-87 -37 -138 -37q-67 0 -67 69q0 23 6 51l60 298l-82 15v26zM47 642q0 20 15 35t35 15t35 -15t15 -35t-15 -35t-35 -15t-35 15t-15 35zM235 642q0 20 15 35t35 15t35 -15t15 -35t-15 -35t-35 -15t-35 15 t-15 35z"/>
<glyph unicode="ð" glyph-name="eth" horiz-adv-x="490" d="M462 649l-112 -45q91 -151 91 -306q0 -125 -64 -211q-71 -96 -186 -96q-86 0 -128.5 58t-42.5 132q0 73 25 133t63.5 95.5t81 54.5t81.5 19q25 0 57 -7l-46 102l-139 -56l-14 37l131 51l-35 51l-78 20l4 28l117 16l61 -87l118 46zM338 437q-29 8 -54 8q-44 0 -78.5 -23 t-52.5 -55t-30 -71.5t-15.5 -67.5t-3.5 -49q0 -35 5.5 -64t29 -56.5t63.5 -27.5q60 0 107.5 73t47.5 187q0 79 -19 146z"/>
<glyph unicode="ñ" glyph-name="ntilde" d="M178 482h26l-19 -96q37 31 60.5 48.5t60.5 33t72 15.5q46 0 65.5 -22.5t19.5 -64.5q0 -20 -14 -87l-34 -147q-11 -48 -11 -67q0 -21 13.5 -35.5t34.5 -14.5q22 0 62 13v-30q-76 -37 -125 -37q-71 0 -71 63q0 19 8 54l43 185q9 40 9 66t-13 44t-38 18q-29 0 -60.5 -16 t-45.5 -28t-45 -39l-62 -338h-84l82 409l-82 15v26zM462 708h42q-5 -51 -36 -85.5t-72 -34.5q-31 0 -71 22l-18 10q-33 18 -46 18q-39 0 -45 -65h-43q7 49 34 84.5t72 35.5q28 0 63 -20l24 -14q32 -18 46 -18q40 0 50 67z"/>
<glyph unicode="ò" glyph-name="ograve" horiz-adv-x="500" d="M275 483q76 0 121 -49q50 -54 50 -145q0 -58 -21.5 -117.5t-62.5 -102.5q-73 -78 -173 -78q-76 0 -123 52q-46 52 -46 140q0 124 76 214q74 86 179 86zM264 443q-72 0 -119 -84q-41 -72 -41 -175q0 -81 30.5 -117t66.5 -36q63 0 109 67q52 75 52 193q0 50 -9.5 83.5 t-27 47t-31 17.5t-30.5 4zM168 736h99l60 -190h-50z"/>
<glyph unicode="ó" glyph-name="oacute" horiz-adv-x="500" d="M275 483q76 0 121 -49q50 -54 50 -145q0 -58 -21.5 -117.5t-62.5 -102.5q-73 -78 -173 -78q-76 0 -123 52q-46 52 -46 140q0 124 76 214q74 86 179 86zM264 443q-72 0 -119 -84q-41 -72 -41 -175q0 -81 30.5 -117t66.5 -36q63 0 109 67q52 75 52 193q0 50 -9.5 83.5 t-27 47t-31 17.5t-30.5 4zM379 736h99l-183 -190h-49z"/>
<glyph unicode="ô" glyph-name="ocircumflex" horiz-adv-x="500" d="M275 483q76 0 121 -49q50 -54 50 -145q0 -58 -21.5 -117.5t-62.5 -102.5q-73 -78 -173 -78q-76 0 -123 52q-46 52 -46 140q0 124 76 214q74 86 179 86zM264 443q-72 0 -119 -84q-41 -72 -41 -175q0 -81 30.5 -117t66.5 -36q63 0 109 67q52 75 52 193q0 50 -9.5 83.5 t-27 47t-31 17.5t-30.5 4zM281 736h65l74 -190h-55l-61 141l-114 -141h-55z"/>
<glyph unicode="õ" glyph-name="otilde" horiz-adv-x="500" d="M275 483q76 0 121 -49q50 -54 50 -145q0 -58 -21.5 -117.5t-62.5 -102.5q-73 -78 -173 -78q-76 0 -123 52q-46 52 -46 140q0 124 76 214q74 86 179 86zM264 443q-72 0 -119 -84q-41 -72 -41 -175q0 -81 30.5 -117t66.5 -36q63 0 109 67q52 75 52 193q0 50 -9.5 83.5 t-27 47t-31 17.5t-30.5 4zM414 708h42q-5 -51 -36 -85.5t-72 -34.5q-31 0 -71 22l-18 10q-33 18 -46 18q-39 0 -45 -65h-43q7 49 34 84.5t72 35.5q28 0 63 -20l24 -14q32 -18 46 -18q40 0 50 67z"/>
<glyph unicode="ö" glyph-name="odieresis" horiz-adv-x="500" d="M275 483q76 0 121 -49q50 -54 50 -145q0 -58 -21.5 -117.5t-62.5 -102.5q-73 -78 -173 -78q-76 0 -123 52q-46 52 -46 140q0 124 76 214q74 86 179 86zM264 443q-72 0 -119 -84q-41 -72 -41 -175q0 -81 30.5 -117t66.5 -36q63 0 109 67q52 75 52 193q0 50 -9.5 83.5 t-27 47t-31 17.5t-30.5 4zM147 642q0 20 15 35t35 15t35 -15t15 -35t-15 -35t-35 -15t-35 15t-15 35zM335 642q0 20 15 35t35 15t35 -15t15 -35t-15 -35t-35 -15t-35 15t-15 35z"/>
<glyph unicode="÷" glyph-name="divide" horiz-adv-x="833" d="M413 530q23 0 39 -16.5t16 -39.5t-16.5 -39.5t-39.5 -16.5t-39.5 16.5t-16.5 39.5t16.5 39.5t40.5 16.5zM413 178q23 0 39 -16.5t16 -39.5t-16.5 -39.5t-39.5 -16.5t-39.5 16.5t-16.5 39.5t16.5 39.5t40.5 16.5zM119 327h585v-58h-585v58z"/>
<glyph unicode="ø" glyph-name="oslash" horiz-adv-x="502" d="M412 547l28 -18l-54 -84q61 -58 61 -157q0 -122 -75 -209.5t-180 -87.5q-38 0 -78 16l-56 -87l-25 17l53 87q-66 60 -66 157q0 125 75 213.5t182 88.5q47 0 83 -20zM120 81l212 335q-28 27 -66 27q-69 0 -118 -75.5t-49 -182.5q0 -55 21 -104zM351 386l-210 -331 q24 -24 60 -24q70 0 118.5 75t48.5 185q0 55 -17 95z"/>
<glyph unicode="ù" glyph-name="ugrave" horiz-adv-x="564" d="M192 484l16 -14l-63 -292q-11 -50 -11 -73q0 -30 16.5 -43.5t39.5 -13.5q59 0 144 64l76 362h80l-67 -308q-11 -49 -11 -71q0 -21 13.5 -35.5t34.5 -14.5q22 0 62 13v-30q-76 -37 -126 -37q-67 0 -67 68q0 11 1 16q-38 -34 -87.5 -59t-94.5 -25q-42 0 -69 22t-27 72 q0 21 8 61l58 264l-84 14v26zM200 736h99l60 -190h-50z"/>
<glyph unicode="ú" glyph-name="uacute" horiz-adv-x="564" d="M192 484l16 -14l-63 -292q-11 -50 -11 -73q0 -30 16.5 -43.5t39.5 -13.5q59 0 144 64l76 362h80l-67 -308q-11 -49 -11 -71q0 -21 13.5 -35.5t34.5 -14.5q22 0 62 13v-30q-76 -37 -126 -37q-67 0 -67 68q0 11 1 16q-38 -34 -87.5 -59t-94.5 -25q-42 0 -69 22t-27 72 q0 21 8 61l58 264l-84 14v26zM431 736h99l-183 -190h-49z"/>
<glyph unicode="û" glyph-name="ucircumflex" horiz-adv-x="564" d="M192 484l16 -14l-63 -292q-11 -50 -11 -73q0 -30 16.5 -43.5t39.5 -13.5q59 0 144 64l76 362h80l-67 -308q-11 -49 -11 -71q0 -21 13.5 -35.5t34.5 -14.5q22 0 62 13v-30q-76 -37 -126 -37q-67 0 -67 68q0 11 1 16q-38 -34 -87.5 -59t-94.5 -25q-42 0 -69 22t-27 72 q0 21 8 61l58 264l-84 14v26zM333 736h65l74 -190h-55l-61 141l-114 -141h-55z"/>
<glyph unicode="ü" glyph-name="udieresis" horiz-adv-x="564" d="M192 484l16 -14l-63 -292q-11 -50 -11 -73q0 -30 16.5 -43.5t39.5 -13.5q59 0 144 64l76 362h80l-67 -308q-11 -49 -11 -71q0 -21 13.5 -35.5t34.5 -14.5q22 0 62 13v-30q-76 -37 -126 -37q-67 0 -67 68q0 11 1 16q-38 -34 -87.5 -59t-94.5 -25q-42 0 -69 22t-27 72 q0 21 8 61l58 264l-84 14v26zM199 642q0 20 15 35t35 15t35 -15t15 -35t-15 -35t-35 -15t-35 15t-15 35zM387 642q0 20 15 35t35 15t35 -15t15 -35t-15 -35t-35 -15t-35 15t-15 35z"/>
<glyph unicode="ý" glyph-name="yacute" horiz-adv-x="474" d="M-16 456l98 29q4 1 13 1q39 0 59 -42q12 -28 41 -173l33 -169q75 190 157 380h19l79 -26v-21l-51 -30q-33 -42 -55 -82.5t-59 -119.5q-83 -175 -127 -244q-113 -177 -226 -177q-35 0 -56.5 19t-21.5 47q0 22 15.5 37t37.5 18l59 -59q54 10 91.5 51t80.5 121l-64 304 q-15 71 -38 104l-85 6v26zM369 736h99l-183 -190h-49z"/>
<glyph unicode="þ" glyph-name="thorn" horiz-adv-x="513" d="M212 736h27q-1 -5 -2.5 -14t-4.5 -23.5t-5 -27.5l-44 -250q90 62 154 62q58 0 91 -46.5t33 -126.5q0 -128 -82.5 -221t-190.5 -93q-36 0 -79 19l-33 -186l95 -17v-30h-240v30l59 12l10 11l149 835l-89 10v26zM176 377l-57 -310q47 -27 86 -27q53 0 93.5 41t60 100.5 t19.5 125.5q0 55 -24 89t-63 34q-25 0 -49 -11.5t-66 -41.5z"/>
</font>
</defs>
</svg>
